<svg width="24" height="24" viewBox="0 0 24 24" fill="none" xmlns="http://www.w3.org/2000/svg">
<path d="M12.2096 10.4094C12.1106 10.2614 11.893 10.2614 11.794 10.4094L11.1251 11.4092C10.8948 11.7535 10.429 11.8459 10.0848 11.6156C9.74047 11.3852 9.64808 10.9194 9.8784 10.5752L10.5473 9.57538C11.2403 8.53946 12.7633 8.53947 13.4563 9.57538L14.1251 10.5752C14.3555 10.9194 14.2631 11.3852 13.9188 11.6156C13.5745 11.8459 13.1087 11.7535 12.8784 11.4092L12.2096 10.4094Z" fill="white"/>
<path d="M9.89489 13.6281C10.108 13.2729 9.99283 12.8122 9.63764 12.5991C9.28246 12.386 8.82176 12.5011 8.60865 12.8563L8.24452 13.4632C7.44469 14.7962 8.40492 16.4922 9.95951 16.4922H10.7518C11.166 16.4922 11.5018 16.1564 11.5018 15.7422C11.5018 15.328 11.166 14.9922 10.7518 14.9922H9.95951C9.57086 14.9922 9.3308 14.5682 9.53076 14.2349L9.89489 13.6281Z" fill="white"/>
<path d="M14.3687 12.5988C14.0134 12.8117 13.8979 13.2723 14.1107 13.6276L14.4747 14.2352C14.6744 14.5685 14.4343 14.9922 14.0458 14.9922H13.2518C12.8376 14.9922 12.5018 15.328 12.5018 15.7422C12.5018 16.1564 12.8376 16.4922 13.2518 16.4922H14.0458C15.5998 16.4922 16.5601 14.7974 15.7615 13.4644L15.3975 12.8568C15.1846 12.5014 14.724 12.3859 14.3687 12.5988Z" fill="white"/>
<path fill-rule="evenodd" clip-rule="evenodd" d="M4.54755 5.50409C4.36368 5.52337 4.19233 5.6101 4.06761 5.74906C3.92536 5.90758 3.85721 6.11909 3.88016 6.33084L5.3613 19.9925C5.48512 21.1346 6.44941 22 7.59819 22H16.4055C17.5545 22 18.5189 21.1343 18.6425 19.9919L20.1199 6.33064C20.1428 6.11893 20.0746 5.90746 19.9324 5.74899C19.8076 5.61007 19.6363 5.52336 19.4525 5.50409H4.54755ZM7.59819 20.5C7.21526 20.5 6.89383 20.2115 6.85256 19.8308L5.4615 7H18.5388L17.1512 19.8306C17.11 20.2114 16.7885 20.5 16.4055 20.5H7.59819Z" fill="white"/>
</svg>
