<svg width="24" height="24" viewBox="0 0 24 24" fill="none" xmlns="http://www.w3.org/2000/svg">
<path d="M8.55129 1.44254C8.27131 1.15936 7.88965 1 7.49142 1C6.66827 1 6.00098 1.6673 6.00098 2.49044V5.5H4.625C4.41202 5.5 4.20908 5.59055 4.06682 5.74906C3.92457 5.90758 3.85642 6.11909 3.87937 6.33084L5.36051 19.9925C5.48433 21.1346 6.44862 22 7.5974 22H16.4047C17.5537 22 18.5181 21.1343 18.6417 19.9919L20.1191 6.33064C20.142 6.11893 20.0738 5.90746 19.9316 5.74899C19.7893 5.59052 19.5864 5.5 19.3734 5.5H18.001V2.75C18.001 1.7835 17.2175 1 16.251 1H12.751C11.7845 1 11.001 1.7835 11.001 2.75V3.92018L8.55129 1.44254ZM16.501 2.75V5.5H12.501V2.75C12.501 2.61193 12.6129 2.5 12.751 2.5H16.251C16.3891 2.5 16.501 2.61193 16.501 2.75ZM10.4536 5.5H7.50098V2.5137L10.4536 5.5ZM11.7936 10.4094L11.1248 11.4092C10.8945 11.7535 10.4287 11.8459 10.0844 11.6155C9.7401 11.3852 9.64772 10.9194 9.87804 10.5751L10.5469 9.57537C11.2399 8.53945 12.7629 8.53945 13.4559 9.57537L14.1248 10.5751C14.3551 10.9194 14.2627 11.3852 13.9184 11.6155C13.5742 11.8459 13.1084 11.7535 12.878 11.4092L12.2092 10.4094C12.1102 10.2614 11.8926 10.2614 11.7936 10.4094ZM9.89452 13.628L9.5304 14.2349C9.33044 14.5682 9.5705 14.9922 9.95914 14.9922H10.7514C11.1656 14.9922 11.5014 15.328 11.5014 15.7422C11.5014 16.1564 11.1656 16.4922 10.7514 16.4922H9.95914C8.40455 16.4922 7.44433 14.7962 8.24416 13.4632L8.60828 12.8563C8.8214 12.5011 9.28209 12.3859 9.63728 12.5991C9.99246 12.8122 10.1076 13.2729 9.89452 13.628ZM14.3683 12.5988C14.7237 12.3859 15.1843 12.5014 15.3971 12.8567L15.7611 13.4644C16.5597 14.7974 15.5994 16.4922 14.0454 16.4922H13.2514C12.8372 16.4922 12.5014 16.1564 12.5014 15.7422C12.5014 15.328 12.8372 14.9922 13.2514 14.9922H14.0454C14.4339 14.9922 14.674 14.5685 14.4744 14.2352L14.1104 13.6276C13.8975 13.2723 14.013 12.8117 14.3683 12.5988Z" fill="white"/>
</svg>
